<?xml version="1.0" encoding="utf-8" standalone="no"?>
<!DOCTYPE svg PUBLIC "-//W3C//DTD SVG 1.1//EN" "http://www.w3.org/Graphics/SVG/1.1/DTD/svg11-flat-20030114.dtd">
<!-- Created by SVGDeveloper 1.0 -->
<svg id="svg" width="100%" height="768" viewBox="0 0 1084 768" preserveAspectRatio="none" version="1.1" xmlns="http://www.w3.org/2000/svg" xmlns:xlink="http://www.w3.org/1999/xlink">
<!--<svg height="100%" width="100%" version="1.1" xmlns="http://www.w3.org/2000/svg" xmlns:xlink="http://www.w3.org/1999/xlink">-->
	<defs>
		<style>
			.active{
				fill:#FF44DD;
			}
			rect:hover {
			fill: yellow;
            pointer-events: all;
			}
		</style>
		<script type="text/javascript">
			<![CDATA[
				
					function changeColor(evt)
					{
			
					}
				
					var colors="";
					function changeT(evt, vId)
					{
					}
					
					function changeB(evt, vId)
					{
					}
					function clickEvent(id){
					}

				]]>
		</script>
	</defs>
	<rect x="34" y="204" width="44" height="56" fill="#FF3300" stroke="none" id="Q" transform="matrix(1.52,0,0,3.93,857.5424,-255.426)"   xmlns="http://www.w3.org/2000/svg" />
	<rect x="35" y="270" width="41" height="52" fill="#FF3300" stroke="none" id="P" transform="matrix(3.452,0,0,1.29,232.1086,351.2408)"   xmlns="http://www.w3.org/2000/svg" />
	<rect x="147.0189" y="335" width="332.9811" height="163" fill="#FF3300" stroke="none" id="S" transform="matrix(0.298,0,-0.007,0.6719999,938.2559,321.234)"   xmlns="http://www.w3.org/2000/svg" />
	<text x="140" y="47" xml:space="preserve" font-family="Microsoft YaHei UI" font-size="21" fill="#33CC00" stroke="none" baseline-shift="baseline" transform="matrix(1,0,0,1,323,-22)">
	Suyun .Ltd测试区</text>
	<path id="G" d="M32.50153 613.3335L31.7257 760.8334L350.7587 762.5L350.0015 692.9167L122.6348 694.1667L122.5016 615" fill="#FF6600" stroke="none" transform="matrix(1.1,0,0,0.9999999,-34.06499,4.166576)"   xmlns="http://www.w3.org/2000/svg" />
	<text x="39.99994" y="723.75" xml:space="preserve" font-family="华文中宋" font-size="21" fill="#000000" stroke="none" baseline-shift="baseline" transform="matrix(1,0,0,1,52,16)">
	测试区
	</text>
	<text x="333.7499" y="650" xml:space="preserve" font-family="华文中宋" font-size="21" fill="#000000" stroke="none" stroke-opacity="0" baseline-shift="baseline" transform="matrix(1,0,0,1,33.7494,90.49992)">
	成品存放区
	</text>
	<rect x="35" y="270" width="41" height="52" fill="#FF3300" stroke="none" transform="matrix(2.795,0,0,1.29,421.1059,350.8245)"    id="O" xmlns="http://www.w3.org/2000/svg" />
	<text x="539.9999" y="660" xml:space="preserve" font-family="华文中宋" font-size="21" fill="#000000" stroke="none" stroke-opacity="0" baseline-shift="baseline" transform="matrix(1,0,0,1,-7.500253,80.99992)">
	缓冲间
	</text>
	<rect x="35" y="270" width="41" height="52" fill="#FF3300" stroke="none" transform="matrix(6.204998,0,0,1.29,420.6072,350.8243)"   id="N" xmlns="http://www.w3.org/2000/svg" />
	<text x="686.2499" y="647.5" xml:space="preserve" font-family="华文中宋" font-size="21" fill="#000000" stroke="none" stroke-opacity="0" baseline-shift="baseline" transform="matrix(1,0,0,1,1.25,94)">
	机械加工区(超声)</text>
	<text x="731.6665" y="524.9999" xml:space="preserve" writing-mode="tb" font-family="华文中宋" font-size="21" fill="#000000" stroke="none" baseline-shift="baseline" transform="matrix(0.9999999,0,0,0.9999999,209.9999,91.66628)">
	更衣室
	</text>
	<text x="988.3331" y="503.3333" xml:space="preserve" font-family="华文中宋" font-size="21" fill="#000000" stroke="none" baseline-shift="baseline" transform="matrix(1,0,0,1,-1.001,108.333)">
	卫生间</text>
	<rect x="985" y="606.67" width="85" height="151.66" fill="#CCCCCC" stroke="none" transform="matrix(1.163,0,0,0.721,-166.477,220.075)"   id="R" xmlns="http://www.w3.org/2000/svg" />
	<text x="1013.333" y="656.6666" xml:space="preserve" font-family="华文中宋" font-size="21" fill="#000000" fill-opacity="1" stroke="none" baseline-shift="baseline" transform="matrix(1,0,0,1,-27.001,70.667)">
	出入口</text>
	<rect x="103.33" y="623.33" width="246.67" height="70" fill="#66CCCC" stroke="none" stroke-opacity="0" transform="matrix(0.9999999,0,0,1.124,-0.90913,-82.70329)"   id="H" xmlns="http://www.w3.org/2000/svg" />
	<text x="220" y="506.6666" xml:space="preserve" font-family="华文中宋" font-size="21" fill="#000000" stroke="none" stroke-opacity="0" baseline-shift="baseline" transform="matrix(1,0,0,1,-30,160)">
	观察区</text>
	<rect x="35" y="270" width="41" height="52" fill="#FF3300" stroke="none" transform="matrix(2.362642,0,0,3.082999,-79.42534,-375.794)"   id="F" xmlns="http://www.w3.org/2000/svg" />
	<text x="21" y="516" xml:space="preserve" writing-mode="tb" font-family="华文中宋" font-size="21" fill="#000000" stroke="none" stroke-opacity="0" baseline-shift="baseline" transform="matrix(1,0,0,1,25,-58)">
	电子负载区</text>
	<rect x="1" y="411" width="96" height="43" fill="#FFCC99" stroke="none" stroke-opacity="0" transform="matrix(1.023,0,0,1,1.372936,0)"   id="KK" xmlns="http://www.w3.org/2000/svg" />
	<text x="17" y="400" xml:space="preserve" font-family="华文中宋" font-size="21" fill="#000000" stroke="none" stroke-opacity="0" baseline-shift="baseline" transform="matrix(1,0,0,1,-1,37)">卫生间</text>
	<rect x="1" y="411" width="96" height="43" fill="#FF9966" stroke="none" stroke-opacity="0" transform="matrix(1.023,0,0,0.9999999,2.503525,-44.00002)"    id="E" xmlns="http://www.w3.org/2000/svg" />
	<text x="10" y="400" xml:space="preserve" font-family="华文中宋" font-size="11" fill="#000000" stroke="none" stroke-opacity="0" baseline-shift="baseline" transform="matrix(1,0,0,1,5,-5)">去离子水生产间</text>
	<rect x="1" y="368" width="96" height="43" fill="#FF6600" stroke="none" stroke-opacity="0" transform="matrix(1.023,0,0,0.9999999,2.503525,-44.00002)"   id="D" xmlns="http://www.w3.org/2000/svg" />
	<text x="10" y="357" xml:space="preserve" font-family="华文中宋" font-size="11" fill="#000000" stroke="none" stroke-opacity="0" baseline-shift="baseline" transform="matrix(1,0,0,1,5,-5)">原材料质检区</text>
	<rect x="1" y="325" width="96" height="43" fill="#00CC99" stroke="none" stroke-opacity="0" transform="matrix(1.023,0,0,0.9999999,2.503525,-44.00002)"    id="C" xmlns="http://www.w3.org/2000/svg" />
	<text x="10" y="312" xml:space="preserve" font-family="华文中宋" font-size="11" fill="#000000" stroke="none" stroke-opacity="0" baseline-shift="baseline" transform="matrix(1,0,0,1,21,-5)">
	缓冲间</text>
	<rect x="1" y="282" width="96" height="43" fill="#FF9966" stroke="none" stroke-opacity="0" transform="matrix(1.023,0,0,0.9999999,2.503525,-44.00002)"   id="B" xmlns="http://www.w3.org/2000/svg" />
	<text x="10" y="299" xml:space="preserve" font-family="华文中宋" font-size="11" fill="#000000" stroke="none" stroke-opacity="0" baseline-shift="baseline" transform="matrix(1,0,0,1,19,-38)">
	控制室</text>
	<rect x="1" y="239" width="96" height="43" fill="#6699CC" stroke="none" stroke-opacity="0" transform="matrix(1.023,0,0,2.64,2.503393,-507.584)"   id="A" xmlns="http://www.w3.org/2000/svg" />
	<text x="10" y="256" xml:space="preserve" font-family="华文中宋" font-size="11" fill="#000000" stroke="none" stroke-opacity="0" baseline-shift="baseline" transform="matrix(1,0,0,1,22.03,-62.273)">
	配电室</text>
	<rect x="103.33" y="623.33" width="246.67" height="70" fill="#66CCCC" stroke="none" stroke-opacity="0" transform="matrix(0.8689999,0,0,1.124,44.36292,-183.916)"   id="I" xmlns="http://www.w3.org/2000/svg" />
	<text x="190.9091" y="548.4847" xml:space="preserve" font-family="华文中宋" font-size="11" fill="#000000" stroke="none" stroke-opacity="0" baseline-shift="baseline" transform="matrix(0.9999999,0,0,0.9999999,19.69654,12.121)" xmlns="http://www.w3.org/2000/svg">
	成品打包区</text>
<rect x="103.33" y="623.33" width="246.67" height="70" fill="#66CCCC" stroke="none" stroke-opacity="0" transform="matrix(0.5949999,0,0,0.7529999,73.04042,-42.551)"   id="J" xmlns="http://www.w3.org/2000/svg" />
<text x="215.1515" y="399.9999" xml:space="preserve" font-family="华文中宋" font-size="11" fill="#000000" stroke="none" stroke-opacity="0" baseline-shift="baseline" transform="matrix(0.9999999,0,0,0.9999999,-19.69651,56.061)">
休息间</text>
<rect x="103.33" y="623.33" width="246.67" height="70" fill="#66CCCC" stroke="none" stroke-opacity="0" transform="matrix(1.016,0,0,1.95,35.323,-1016.923)"   id="W" xmlns="http://www.w3.org/2000/svg" />
<text x="487.8787" y="316.6666" xml:space="preserve" font-family="华文中宋" font-size="11" fill="#000000" stroke="none" stroke-opacity="0" baseline-shift="baseline" transform="matrix(1,0,0,1,-257.426,-44.242)" xmlns="http://www.w3.org/2000/svg">
原材料存放区</text>
<rect x="103.33" y="623.33" width="246.67" height="70" fill="#66CCCC" stroke="none" stroke-opacity="0" transform="matrix(1.954,0,0,2.034,201.902,-719.3477)"   id="M" xmlns="http://www.w3.org/2000/svg" />
<text x="483.3333" y="551.5151" xml:space="preserve" font-family="华文中宋" font-size="11" fill="#000000" stroke="none" stroke-opacity="0" baseline-shift="baseline" transform="matrix(1,0,0,1,138.864,83.485)">
装配区</text>
<rect x="103.33" y="623.33" width="246.67" height="70" fill="#66CCCC" stroke="none" stroke-opacity="0" transform="matrix(1.451,0,0,1.124,163.3708,-275.734)"   id="K" xmlns="http://www.w3.org/2000/svg" />
<text x="468.1818" y="383.3333" xml:space="preserve" font-family="华文中宋" font-size="11" fill="#000000" stroke="none" stroke-opacity="0" baseline-shift="baseline" transform="matrix(0.9999999,0,0,0.9999999,36.36386,84.84795)">
装配区</text>
<rect x="103.33" y="623.33" width="246.67" height="70" fill="#66CCCC" stroke="none" stroke-opacity="0" transform="matrix(0.8489999,0,0,1.124,586.5301,-275.431)"   id="L" xmlns="http://www.w3.org/2000/svg" />
<text x="727.2726" y="390.909" xml:space="preserve" font-family="华文中宋" font-size="11" fill="#000000" stroke="none" stroke-opacity="0" baseline-shift="baseline" transform="matrix(1,0,0,1,28.788,72.727)">
待验收区</text>
<rect x="103.33" y="623.33" width="246.67" height="70" fill="#66CCCC" stroke="none" stroke-opacity="0" transform="matrix(0.51,0,0,1.821,360.5714,-862.6932)"   id="V" xmlns="http://www.w3.org/2000/svg" />
<text x="436.3636" y="227.2727" xml:space="preserve" font-family="华文中宋" font-size="11" fill="#000000" stroke="none" stroke-opacity="0" baseline-shift="baseline" transform="matrix(0.9999999,0,0,0.9999999,0.0001182556,112.121)">
合格电堆存放区</text>
<rect x="103.33" y="623.33" width="246.67" height="70" fill="#66CCCC" stroke="none" stroke-opacity="0" transform="matrix(0.487,0,0,1.02,493.0057,-307.666)"   id="T" xmlns="http://www.w3.org/2000/svg" />
<text x="615.1514" y="286.3636" xml:space="preserve" font-family="华文中宋" font-size="11" fill="#000000" stroke="none" stroke-opacity="0" baseline-shift="baseline" transform="matrix(0.9999999,0,0,0.9999999,-59.0907,81.81799)">
待领用零部件暂存区</text>
<rect x="103.33" y="623.33" width="246.67" height="70" fill="#66CCCC" stroke="none" stroke-opacity="0" transform="matrix(0.874,0,0,1.02,577.4017,-307.3632)"   id="U" xmlns="http://www.w3.org/2000/svg" />
<text x="736.3635" y="298.4848" xml:space="preserve" font-family="华文中宋" font-size="11" fill="#000000" stroke="none" stroke-opacity="0" baseline-shift="baseline" transform="matrix(1,0,0,1,9.091,72.727)">
零部件存放区</text>
<rect x="103.33" y="623.33" width="246.67" height="70" fill="#66CCCC" stroke="none" stroke-opacity="0" transform="matrix(1.366,0,0,0.696,403.5406,-159.203)"   id="X" xmlns="http://www.w3.org/2000/svg" />
<text x="570" y="234" xml:space="preserve" font-family="华文中宋" font-size="11" fill="#000000" stroke="none" stroke-opacity="0" baseline-shift="baseline" transform="matrix(1,0,0,1,97,69)">
零部件存放区</text>
</svg>