<?xml version="1.0" encoding="utf-8"?>
<!-- Generator: Adobe Illustrator 16.0.4, SVG Export Plug-In . SVG Version: 6.00 Build 0)  -->
<!DOCTYPE svg PUBLIC "-//W3C//DTD SVG 1.1//EN" "http://www.w3.org/Graphics/SVG/1.1/DTD/svg11.dtd">
<svg version="1.1"
	 id="Laag_1" xmlns:dc="http://purl.org/dc/elements/1.1/" xmlns:cc="http://creativecommons.org/ns#" xmlns:rdf="http://www.w3.org/1999/02/22-rdf-syntax-ns#" xmlns:svg="http://www.w3.org/2000/svg" xmlns:sodipodi="http://sodipodi.sourceforge.net/DTD/sodipodi-0.dtd" xmlns:inkscape="http://www.inkscape.org/namespaces/inkscape" inkscape:version="0.48.4 r9939" sodipodi:docname="map.svg"
	 xmlns="http://www.w3.org/2000/svg" xmlns:xlink="http://www.w3.org/1999/xlink" x="0px" y="0px" width="792.307px"
	 height="352.309px" viewBox="0 0 792.307 352.309" enable-background="new 0 0 792.307 352.309" xml:space="preserve">
<sodipodi:namedview  bordercolor="#666666" pagecolor="#ffffff" borderopacity="1" objecttolerance="10" gridtolerance="10" guidetolerance="10" showgrid="false" inkscape:zoom="1.1030866" inkscape:cx="513.48268" inkscape:cy="102.65198" id="namedview639" inkscape:pageopacity="0" inkscape:pageshadow="2" inkscape:window-width="1440" inkscape:window-height="853" inkscape:window-x="0" inkscape:window-y="0" inkscape:window-maximized="1" inkscape:current-layer="Laag_1">
	</sodipodi:namedview>
<polygon id="polygon3" fill="none" stroke="#000000" stroke-width="3" stroke-miterlimit="10" points="681.373,324.209 
	575.893,324.209 565.333,334.889 565.333,324.448 472.693,324.448 472.693,336.141 336.853,336.141 336.853,325.648 
	244.212,325.648 244.213,340.648 227.893,324.448 128.413,324.448 26.893,222.809 52.453,222.809 52.453,141.568 26.893,141.568 
	128.413,40.048 227.893,40.048 243.973,24.087 243.973,40.048 336.853,40.048 336.853,27.929 472.693,27.929 472.693,40.048 
	565.333,40.048 565.333,29.49 575.893,40.048 681.613,40.048 782.653,141.568 757.093,141.568 757.093,221.608 783.946,221.635 "/>
<rect id="rect5" x="57.373" y="150.688" fill="#EEEDF8" stroke="#000000" stroke-miterlimit="10" width="20.28" height="10.2"/>
<rect id="rect7" x="77.653" y="150.688" fill="#EEEDF8" stroke="#000000" stroke-miterlimit="10" width="20.28" height="10.2"/>
<rect id="rect9" x="77.653" y="160.889" fill="#EEEDF8" stroke="#000000" stroke-miterlimit="10" width="20.28" height="10.079"/>
<rect id="rect11" x="57.373" y="160.889" fill="#EEEDF8" stroke="#000000" stroke-miterlimit="10" width="20.28" height="10.079"/>
<circle id="circle13" fill="#FFFFFF" stroke="#000000" stroke-miterlimit="10" cx="67.567" cy="148.28" r="5.752"/>
<circle id="circle15" fill="#FFFFFF" stroke="#000000" stroke-miterlimit="10" cx="87.553" cy="148.28" r="5.752"/>
<circle id="circle17" fill="#FFFFFF" stroke="#000000" stroke-miterlimit="10" cx="87.553" cy="173.856" r="5.752"/>
<circle id="circle19" fill="#FFFFFF" stroke="#000000" stroke-miterlimit="10" cx="67.567" cy="173.856" r="5.752"/>
<rect id="rect21" x="57.373" y="193.688" fill="#EEEDF8" stroke="#000000" stroke-miterlimit="10" width="20.28" height="10.2"/>
<rect id="rect23" x="77.653" y="193.688" fill="#EEEDF8" stroke="#000000" stroke-miterlimit="10" width="20.28" height="10.2"/>
<rect id="rect25" x="77.653" y="203.889" fill="#EEEDF8" stroke="#000000" stroke-miterlimit="10" width="20.28" height="10.079"/>
<rect id="rect27" x="57.373" y="203.889" fill="#EEEDF8" stroke="#000000" stroke-miterlimit="10" width="20.28" height="10.079"/>
<circle id="circle29" fill="#FFFFFF" stroke="#000000" stroke-miterlimit="10" cx="67.567" cy="191.28" r="5.752"/>
<circle id="circle31" fill="#FFFFFF" stroke="#000000" stroke-miterlimit="10" cx="87.553" cy="191.28" r="5.752"/>
<circle id="circle33" fill="#FFFFFF" stroke="#000000" stroke-miterlimit="10" cx="87.553" cy="216.856" r="5.752"/>
<circle id="circle35" fill="#FFFFFF" stroke="#000000" stroke-miterlimit="10" cx="67.567" cy="216.856" r="5.752"/>
<rect id="rect37" x="73.14" y="99.348" transform="matrix(0.7071 0.7071 -0.7071 0.7071 98.2482 -28.2961)" fill="#EEEDF8" stroke="#000000" stroke-miterlimit="10" width="20.281" height="10.201"/>
<circle id="circle39" fill="#FFFFFF" stroke="#000000" stroke-miterlimit="10" cx="88.593" cy="99.139" r="5.752"/>
<rect id="rect41" x="65.973" y="106.519" transform="matrix(-0.7071 -0.7071 0.7071 -0.7071 51.0058 244.3661)" fill="#EEEDF8" stroke="#000000" stroke-miterlimit="10" width="20.28" height="10.201"/>
<circle id="circle43" fill="#FFFFFF" stroke="#000000" stroke-miterlimit="10" cx="70.508" cy="117.224" r="5.752"/>
<rect id="rect45" x="80.356" y="113.692" transform="matrix(-0.7071 0.7071 -0.7071 -0.7071 238.4856 138.8015)" fill="#EEEDF8" stroke="#000000" stroke-miterlimit="10" width="20.28" height="10.202"/>
<circle id="circle47" fill="#FFFFFF" stroke="#000000" stroke-miterlimit="10" cx="96.102" cy="124.394" r="5.752"/>
<rect id="rect49" x="106.122" y="71.849" fill="#EEEDF8" stroke="#000000" stroke-miterlimit="10" width="20.28" height="10.199"/>
<circle id="circle75" fill="#FFFFFF" stroke="#000000" stroke-miterlimit="10" cx="116.262" cy="69.441" r="5.752"/>
<rect id="rect53" x="106.122" y="81.99" fill="#EEEDF8" stroke="#000000" stroke-miterlimit="10" width="20.28" height="10.2"/>
<circle id="circle79" fill="#FFFFFF" stroke="#000000" stroke-miterlimit="10" cx="116.262" cy="95.017" r="5.752"/>
<line id="line57" fill="none" stroke="#000000" stroke-miterlimit="10" x1="131.015" y1="40.048" x2="131.015" y2="127.393"/>
<line id="line59" fill="none" stroke="#000000" stroke-miterlimit="10" x1="39.228" y1="235.157" x2="165.461" y2="235.157"/>
<line id="line61" fill="none" stroke="#000000" stroke-miterlimit="10" x1="165.461" y1="235.157" x2="165.461" y2="127.393"/>
<line id="line63" fill="none" stroke="#000000" stroke-miterlimit="10" x1="131.015" y1="127.393" x2="165.461" y2="127.393"/>
<line id="line65" fill="none" stroke="#000000" stroke-miterlimit="10" x1="113.771" y1="235.157" x2="113.771" y2="150.688"/>
<line id="line67" fill="none" stroke="#000000" stroke-miterlimit="10" x1="113.771" y1="150.688" x2="165.461" y2="150.688"/>
<line id="line69" fill="none" stroke="#000000" stroke-miterlimit="10" x1="113.771" y1="192.28" x2="165.461" y2="192.28"/>
<rect id="rect71" x="128.084" y="164.018" fill="#EEEDF8" stroke="#000000" stroke-miterlimit="10" width="10.2" height="25.823"/>
<circle id="circle73" fill="#FFFFFF" stroke="#000000" stroke-miterlimit="10" cx="125.676" cy="176.158" r="5.752"/>
<rect id="rect81" x="127.805" y="194.688" fill="#EEEDF8" stroke="#000000" stroke-miterlimit="10" width="10.2" height="25.822"/>
<circle id="circle83" fill="#FFFFFF" stroke="#000000" stroke-miterlimit="10" cx="125.397" cy="206.828" r="5.753"/>
<line id="line91" fill="none" stroke="#000000" stroke-miterlimit="10" x1="202.961" y1="40.048" x2="202.961" y2="100.841"/>
<line id="line93" fill="none" stroke="#000000" stroke-miterlimit="10" x1="472.961" y1="100.841" x2="131.015" y2="100.841"/>
<line id="line95" fill="none" stroke="#000000" stroke-miterlimit="10" x1="273.961" y1="40.048" x2="273.961" y2="100.841"/>
<line id="line97" fill="none" stroke="#000000" stroke-miterlimit="10" x1="472.693" y1="40.048" x2="472.693" y2="100.841"/>
<line id="line99" fill="none" stroke="#000000" stroke-miterlimit="10" x1="313.961" y1="40.048" x2="313.961" y2="100.854"/>
<line id="line101" fill="none" stroke="#000000" stroke-miterlimit="10" x1="357.461" y1="27.929" x2="357.461" y2="100.769"/>
<line id="line103" fill="none" stroke="#000000" stroke-miterlimit="10" x1="420.961" y1="27.929" x2="420.961" y2="100.854"/>
<path id="path105" fill="#FFFFFF" stroke="#000000" stroke-miterlimit="10" d="M165.461,145.221c0,0-3.557,2.985-6.036-0.86
	l-0.622,1.86l5-14.949h1.658V145.221L165.461,145.221z"/>
<path id="path107" fill="#FFFFFF" stroke="#000000" stroke-miterlimit="10" d="M165.461,208.222c0,0-3.557,2.985-6.036-0.86
	l-0.622,1.86l5-14.949h1.658V208.222L165.461,208.222z"/>
<path id="path109" fill="#FFFFFF" stroke="#000000" stroke-miterlimit="10" d="M165.461,175.377c0,0-3.557-2.985-6.036,0.859
	l-0.622-1.859l5,14.949h1.658V175.377L165.461,175.377z"/>
<path id="path111" fill="#FFFFFF" stroke="#000000" stroke-miterlimit="10" d="M184.343,100.841c0,0-2.986-3.557,0.86-6.035
	l-1.86-0.622l14.949,5v1.657H184.343z"/>
<path id="path113" fill="#FFFFFF" stroke="#000000" stroke-miterlimit="10" d="M258.343,100.841c0,0-2.986-3.557,0.86-6.035
	l-1.86-0.622l14.949,5v1.657H258.343z"/>
<path id="path115" fill="#FFFFFF" stroke="#000000" stroke-miterlimit="10" d="M298.343,100.841c0,0-2.986-3.557,0.86-6.035
	l-1.86-0.622l14.949,5v1.657H298.343z"/>
<path id="path117" fill="#FFFFFF" stroke="#000000" stroke-miterlimit="10" d="M341.87,100.841c0,0-2.986-3.557,0.86-6.035
	l-1.86-0.622l14.949,5v1.657H341.87z"/>
<path id="path119" fill="#FFFFFF" stroke="#000000" stroke-miterlimit="10" d="M405.343,100.841c0,0-2.984-3.557,0.86-6.035
	l-1.86-0.622l14.949,5v1.657H405.343z"/>
<path id="path121" fill="#FFFFFF" stroke="#000000" stroke-miterlimit="10" d="M457.112,100.798c0,0-2.986-3.557,0.858-6.036
	l-1.858-0.621l14.947,5v1.657H457.112z"/>
<circle id="h_circle125" inkscape:label="#circle125" fill="#999999" cx="168.474" cy="52.229" r="5.752">
</circle>
<circle id="h_circle129" inkscape:label="#circle129" fill="#999999" cx="194.05" cy="52.229" r="5.752">
</circle>
<circle id="h_circle133" inkscape:label="#circle133" fill="#999999" cx="153.631" cy="92.189" r="5.752">
</circle>
<circle id="h_circle135" inkscape:label="#circle135" fill="#999999" cx="140.948" cy="75.155" r="5.752">
</circle>
<circle id="h_circle137" inkscape:label="#circle137" fill="#999999" cx="140.948" cy="88.943" r="5.752">
</circle>
<circle id="h_circle139" inkscape:label="#circle139" fill="#999999" cx="166.485" cy="75.155" r="5.752">
</circle>
<circle id="h_circle141" inkscape:label="#circle141" fill="#999999" cx="166.485" cy="88.943" r="5.752">
</circle>
<circle id="h_circle143" inkscape:label="#circle143" fill="#999999" cx="153.631" cy="71.849" r="5.752">
</circle>
<rect id="rect145" x="202.961" y="70.222" fill="#EEEDF8" stroke="#000000" stroke-miterlimit="10" width="20.28" height="10.199"/>
<circle id="circle147" fill="#FFFFFF" stroke="#000000" stroke-miterlimit="10" cx="213.102" cy="67.813" r="5.752"/>
<rect id="rect149" x="202.961" y="80.361" fill="#EEEDF8" stroke="#000000" stroke-miterlimit="10" width="20.28" height="10.201"/>
<circle id="circle151" fill="#FFFFFF" stroke="#000000" stroke-miterlimit="10" cx="213.102" cy="93.39" r="5.752"/>
<rect id="rect153" x="223.242" y="70.221" fill="#EEEDF8" stroke="#000000" stroke-miterlimit="10" width="10.201" height="20.279"/>
<circle id="circle155" fill="#FFFFFF" stroke="#000000" stroke-miterlimit="10" cx="236.27" cy="80.361" r="5.752"/>
<rect id="rect157" x="242.882" y="43.089" fill="#EEEDF8" stroke="#000000" stroke-miterlimit="10" width="10.2" height="20.28"/>
<circle id="circle159" fill="#FFFFFF" stroke="#000000" stroke-miterlimit="10" cx="240.474" cy="53.229" r="5.752"/>
<rect id="rect161" x="253.022" y="43.089" fill="#EEEDF8" stroke="#000000" stroke-miterlimit="10" width="10.201" height="20.28"/>
<circle id="circle163" fill="#FFFFFF" stroke="#000000" stroke-miterlimit="10" cx="266.05" cy="53.229" r="5.752"/>
<circle id="h_circle167" inkscape:label="#circle167" fill="#999999" cx="284.676" cy="64.044" r="5.752">
</circle>
<circle id="h_circle469" inkscape:label="#circle469" fill="#999999" cx="300.252" cy="57.158" r="5.752">
</circle>
<circle id="h_circle497" inkscape:label="#circle497" fill="#999999" cx="300.252" cy="70.451" r="5.753">
</circle>
<circle id="h_circle175" inkscape:label="#circle175" fill="#999999" cx="326.676" cy="64.044" r="5.752">
</circle>
<circle id="h_circle177" inkscape:label="#circle177" fill="#999999" cx="342.252" cy="57.158" r="5.752">
</circle>
<circle id="h_circle179" inkscape:label="#circle179" fill="#999999" cx="342.252" cy="70.451" r="5.753">
</circle>
<rect id="rect181" x="357.961" y="70.222" fill="#EEEDF8" stroke="#000000" stroke-miterlimit="10" width="20.28" height="10.199"/>
<circle id="circle183" fill="#FFFFFF" stroke="#000000" stroke-miterlimit="10" cx="368.102" cy="67.813" r="5.752"/>
<rect id="rect185" x="357.961" y="80.361" fill="#EEEDF8" stroke="#000000" stroke-miterlimit="10" width="20.28" height="10.201"/>
<circle id="circle187" fill="#FFFFFF" stroke="#000000" stroke-miterlimit="10" cx="368.102" cy="93.39" r="5.752"/>
<rect id="rect189" x="378.242" y="70.221" fill="#EEEDF8" stroke="#000000" stroke-miterlimit="10" width="10.201" height="20.279"/>
<circle id="circle191" fill="#FFFFFF" stroke="#000000" stroke-miterlimit="10" cx="391.27" cy="80.361" r="5.752"/>
<rect id="rect193" x="382.882" y="30.089" fill="#EEEDF8" stroke="#000000" stroke-miterlimit="10" width="10.2" height="20.28"/>
<circle id="circle195" fill="#FFFFFF" stroke="#000000" stroke-miterlimit="10" cx="380.474" cy="40.229" r="5.752"/>
<rect id="rect197" x="393.022" y="30.089" fill="#EEEDF8" stroke="#000000" stroke-miterlimit="10" width="10.199" height="20.28"/>
<circle id="circle199" fill="#FFFFFF" stroke="#000000" stroke-miterlimit="10" cx="406.05" cy="40.229" r="5.752"/>
<line id="line201" fill="none" stroke="#000000" stroke-miterlimit="10" x1="420.961" y1="64.699" x2="472.693" y2="64.699"/>
<path id="path203" fill="#FFFFFF" stroke="#000000" stroke-miterlimit="10" d="M472.521,48.869c0,0-3.559-2.986-6.036,0.859
	l-0.622-1.859l5,14.948h1.656L472.521,48.869L472.521,48.869z"/>
<rect id="rect205" x="434.247" y="64.699" fill="#EEEDF8" stroke="#000000" stroke-miterlimit="10" width="10.2" height="25.823"/>
<circle id="circle207" fill="#FFFFFF" stroke="#000000" stroke-miterlimit="10" cx="431.838" cy="77.61" r="5.752"/>
<rect id="rect213" x="434.247" y="38.875" fill="#EEEDF8" stroke="#000000" stroke-miterlimit="10" width="10.2" height="25.824"/>
<circle id="circle215" fill="#FFFFFF" stroke="#000000" stroke-miterlimit="10" cx="431.838" cy="51.787" r="5.752"/>
<circle id="h_circle221" inkscape:label="#circle221" fill="#999999" cx="493.444" cy="50.688" r="5.752">
</circle>
<circle id="h_circle225" inkscape:label="#circle225" fill="#999999" cx="519.02" cy="50.688" r="5.752">
</circle>
<circle id="h_circle227" inkscape:label="#circle227" fill="#999999" cx="493.444" cy="64.688" r="5.752">
</circle>
<circle id="h_circle229" inkscape:label="#circle229" fill="#999999" cx="519.02" cy="64.688" r="5.752">
</circle>
<circle id="h_circle233" inkscape:label="#circle233" fill="#999999" cx="493.444" cy="78.688" r="5.752">
</circle>
<circle id="h_circle237" inkscape:label="#circle237" fill="#999999" cx="519.02" cy="78.688" r="5.752">
</circle>
<circle id="h_circle239" inkscape:label="#circle239" fill="#999999" cx="493.444" cy="92.688" r="5.752">
</circle>
<circle id="h_circle279" inkscape:label="#circle279" fill="#999999" cx="519.02" cy="92.688" r="5.752">
</circle>
<line id="line243" fill="none" stroke="#000000" stroke-miterlimit="10" x1="539.693" y1="40.048" x2="539.693" y2="100.841"/>
<line id="line245" fill="none" stroke="#000000" stroke-miterlimit="10" x1="586.693" y1="40.048" x2="586.693" y2="100.841"/>
<line id="line247" fill="none" stroke="#000000" stroke-miterlimit="10" x1="633.693" y1="40.048" x2="633.693" y2="100.841"/>
<line id="line249" fill="none" stroke="#000000" stroke-miterlimit="10" x1="680.693" y1="40.048" x2="680.693" y2="100.841"/>
<line id="line251" fill="none" stroke="#000000" stroke-miterlimit="10" x1="539.693" y1="100.841" x2="680.693" y2="100.841"/>
<line id="line253" fill="none" stroke="#000000" stroke-miterlimit="10" x1="539.693" y1="70.725" x2="586.693" y2="70.725"/>
<path id="path255" fill="#FFFFFF" stroke="#000000" stroke-miterlimit="10" d="M554.956,100.798c0,0,2.986-3.557-0.86-6.036
	l1.86-0.621l-14.949,5v1.657H554.956z"/>
<path id="path257" fill="#FFFFFF" stroke="#000000" stroke-miterlimit="10" d="M649.956,100.798c0,0,2.986-3.557-0.86-6.036
	l1.86-0.621l-14.949,5v1.657H649.956z"/>
<path id="path259" fill="#FFFFFF" stroke="#000000" stroke-miterlimit="10" d="M617.112,100.798c0,0-2.986-3.557,0.858-6.036
	l-1.858-0.621l14.947,5v1.657H617.112z"/>
<path id="path261" fill="#FFFFFF" stroke="#000000" stroke-miterlimit="10" d="M539.693,54.64c0,0,3.557-2.986,6.034,0.859
	l0.622-1.859l-5,14.948h-1.656V54.64z"/>
<rect id="rect263" x="566.804" y="70.699" fill="#EEEDF8" stroke="#000000" stroke-miterlimit="10" width="10.2" height="25.823"/>
<circle id="circle265" fill="#FFFFFF" stroke="#000000" stroke-miterlimit="10" cx="579.413" cy="83.61" r="5.752"/>
<rect id="rect271" x="566.804" y="44.875" fill="#EEEDF8" stroke="#000000" stroke-miterlimit="10" width="10.2" height="25.824"/>
<circle id="circle273" fill="#FFFFFF" stroke="#000000" stroke-miterlimit="10" cx="579.413" cy="57.787" r="5.752"/>
<rect id="rect277" x="605.372" y="42.623" fill="#EEEDF8" stroke="#000000" stroke-miterlimit="10" width="10.2" height="25.824"/>
<circle id="circle241" fill="#FFFFFF" stroke="#000000" stroke-miterlimit="10" cx="617.98" cy="55.534" r="5.752"/>
<rect id="rect285" x="652.253" y="42.623" fill="#EEEDF8" stroke="#000000" stroke-miterlimit="10" width="10.2" height="25.824"/>
<circle id="circle287" fill="#FFFFFF" stroke="#000000" stroke-miterlimit="10" cx="664.862" cy="55.534" r="5.752"/>
<line id="line291" fill="none" stroke="#000000" stroke-miterlimit="10" x1="655.039" y1="100.854" x2="655.039" y2="234.923"/>
<line id="line293" fill="none" stroke="#000000" stroke-miterlimit="10" x1="655.039" y1="129.272" x2="770.659" y2="129.272"/>
<line id="line295" fill="none" stroke="#000000" stroke-miterlimit="10" x1="655.039" y1="234.923" x2="770.659" y2="234.923"/>
<line id="line297" fill="none" stroke="#000000" stroke-miterlimit="10" x1="655.039" y1="186.153" x2="757.093" y2="186.153"/>
<path id="path299" fill="#FFFFFF" stroke="#000000" stroke-miterlimit="10" d="M655.039,117.937c0,0,3.557,2.985,6.036-0.859
	l0.622,1.859l-5-14.949h-1.658V117.937z"/>
<path id="path301" fill="#FFFFFF" stroke="#000000" stroke-miterlimit="10" d="M655.039,148.01c0,0,3.557,2.986,6.036-0.859
	l0.622,1.859l-5-14.948h-1.658V148.01z"/>
<path id="path303" fill="#FFFFFF" stroke="#000000" stroke-miterlimit="10" d="M655.039,219.167c0,0,3.557-2.985,6.036,0.858
	l0.622-1.858l-5,14.949h-1.658V219.167z"/>
<path id="path305" fill="#FFFFFF" stroke="#000000" stroke-miterlimit="10" d="M705.249,129.272c0,0-2.986,3.558,0.859,6.036
	l-1.859,0.622l14.949-5v-1.658H705.249z"/>
<rect id="rect307" x="686.276" y="69.538" transform="matrix(0.7071 -0.7071 0.7071 0.7071 151.1993 514.3024)" fill="#EEEDF8" stroke="#000000" stroke-miterlimit="10" width="20.282" height="10.199"/>
<circle id="circle309" fill="#FFFFFF" stroke="#000000" stroke-miterlimit="10" cx="691.101" cy="69.319" r="5.752"/>
<rect id="rect311" x="693.44" y="76.698" transform="matrix(-0.7071 0.7071 -0.7071 -0.7071 1258.9275 -357.8677)" fill="#EEEDF8" stroke="#000000" stroke-miterlimit="10" width="20.281" height="10.201"/>
<circle id="circle313" fill="#FFFFFF" stroke="#000000" stroke-miterlimit="10" cx="709.186" cy="87.404" r="5.752"/>
<rect id="rect315" x="716.247" y="99.498" transform="matrix(0.7071 -0.7071 0.7071 0.7071 138.7924 544.27)" fill="#EEEDF8" stroke="#000000" stroke-miterlimit="10" width="20.282" height="10.2"/>
<circle id="circle317" fill="#FFFFFF" stroke="#000000" stroke-miterlimit="10" cx="721.101" cy="99.319" r="5.752"/>
<rect id="rect319" x="723.44" y="106.698" transform="matrix(-0.7071 0.7071 -0.7071 -0.7071 1331.353 -327.8673)" fill="#EEEDF8" stroke="#000000" stroke-miterlimit="10" width="20.281" height="10.201"/>
<circle id="circle321" fill="#FFFFFF" stroke="#000000" stroke-miterlimit="10" cx="739.186" cy="117.404" r="5.752"/>
<circle id="h_circle325" inkscape:label="#circle325" fill="#999999" cx="674.101" cy="166.319" r="5.752">
</circle>
<circle id="h_circle327" inkscape:label="#circle327" fill="#999999" cx="674.101" cy="153.319" r="5.752">
</circle>
<circle id="h_circle329" inkscape:label="#circle329" fill="#999999" cx="684.604" cy="144.818" r="5.752">
</circle>
<circle id="h_circle331" inkscape:label="#circle331" fill="#999999" cx="697.604" cy="144.818" r="5.752">
</circle>
<circle id="h_circle333" inkscape:label="#circle333" fill="#999999" cx="684.604" cy="174.818" r="5.752">
</circle>
<circle id="h_circle335" inkscape:label="#circle335" fill="#999999" cx="697.604" cy="174.818" r="5.752">
</circle>
<circle id="h_circle339" inkscape:label="#circle339" fill="#999999" cx="738.435" cy="153.317" r="5.752">
</circle>
<circle id="h_circle377" inkscape:label="#circle377" fill="#999999" cx="738.435" cy="166.316" r="5.752">
</circle>
<circle id="h_circle379" inkscape:label="#circle379" fill="#999999" cx="727.934" cy="174.818" r="5.752">
</circle>
<circle id="h_circle381" inkscape:label="#circle381" fill="#999999" cx="714.934" cy="174.818" r="5.752">
</circle>
<circle id="h_circle383" inkscape:label="#circle383" fill="#999999" cx="727.934" cy="144.817" r="5.752">
</circle>
<circle id="h_circle349" inkscape:label="#circle349" fill="#999999" cx="714.934" cy="144.817" r="5.752">
</circle>
<line id="line351" fill="none" stroke="#000000" stroke-miterlimit="10" x1="565.333" y1="324.448" x2="565.333" y2="259.618"/>
<line id="line353" fill="none" stroke="#000000" stroke-miterlimit="10" x1="565.333" y1="258.923" x2="441.247" y2="258.923"/>
<line id="line355" fill="none" stroke="#000000" stroke-miterlimit="10" x1="441.247" y1="258.923" x2="441.247" y2="336.141"/>
<line id="line357" fill="none" stroke="#000000" stroke-miterlimit="10" x1="511.092" y1="258.923" x2="511.092" y2="324.448"/>
<line id="line359" fill="none" stroke="#000000" stroke-miterlimit="10" x1="441.247" y1="291.532" x2="511.092" y2="291.532"/>
<rect id="rect361" x="720.62" y="247.702" transform="matrix(-0.7071 -0.7071 0.7071 -0.7071 1068.7269 948.2852)" fill="#EEEDF8" stroke="#000000" stroke-miterlimit="10" width="20.28" height="10.201"/>
<rect id="rect363" x="713.424" y="254.945" transform="matrix(-0.7071 -0.7071 0.7071 -0.7071 1051.3661 955.4583)" fill="#EEEDF8" stroke="#000000" stroke-miterlimit="10" width="20.281" height="10.079"/>
<circle id="circle365" fill="#FFFFFF" stroke="#000000" stroke-miterlimit="10" cx="735.898" cy="247.323" r="5.753"/>
<circle id="circle367" fill="#FFFFFF" stroke="#000000" stroke-miterlimit="10" cx="717.812" cy="265.408" r="5.752"/>
<rect id="rect369" x="675.921" y="263.748" transform="matrix(0.7071 0.7071 -0.7071 0.7071 391.0235 -406.364)" fill="#EEEDF8" stroke="#000000" stroke-miterlimit="10" width="20.279" height="10.199"/>
<rect id="rect371" x="690.214" y="278.107" transform="matrix(-0.7071 -0.7071 0.7071 -0.7071 995.3217 978.6893)" fill="#EEEDF8" stroke="#000000" stroke-miterlimit="10" width="20.281" height="10.201"/>
<rect id="rect373" x="683.019" y="285.346" transform="matrix(-0.7071 -0.7071 0.7071 -0.7071 977.9617 985.8579)" fill="#EEEDF8" stroke="#000000" stroke-miterlimit="10" width="20.28" height="10.08"/>
<rect id="rect375" x="668.682" y="271.008" transform="matrix(-0.7071 -0.7071 0.7071 -0.7071 963.6475 951.2318)" fill="#EEEDF8" stroke="#000000" stroke-miterlimit="10" width="20.278" height="10.08"/>
<circle id="circle341" fill="#FFFFFF" stroke="#000000" stroke-miterlimit="10" cx="691.361" cy="263.596" r="5.752"/>
<circle id="circle343" fill="#FFFFFF" stroke="#000000" stroke-miterlimit="10" cx="705.493" cy="277.729" r="5.752"/>
<circle id="circle345" fill="#FFFFFF" stroke="#000000" stroke-miterlimit="10" cx="687.408" cy="295.813" r="5.752"/>
<circle id="circle347" fill="#FFFFFF" stroke="#000000" stroke-miterlimit="10" cx="673.275" cy="281.682" r="5.752"/>
<rect id="rect385" x="639.333" y="277.288" fill="#EEEDF8" stroke="#000000" stroke-miterlimit="10" width="10.2" height="20.278"/>
<rect id="rect387" x="639.333" y="297.567" fill="#EEEDF8" stroke="#000000" stroke-miterlimit="10" width="10.2" height="20.281"/>
<rect id="rect389" x="629.252" y="297.567" fill="#EEEDF8" stroke="#000000" stroke-miterlimit="10" width="10.08" height="20.281"/>
<rect id="rect391" x="629.252" y="277.288" fill="#EEEDF8" stroke="#000000" stroke-miterlimit="10" width="10.08" height="20.278"/>
<circle id="circle393" fill="#FFFFFF" stroke="#000000" stroke-miterlimit="10" cx="651.941" cy="287.481" r="5.752"/>
<circle id="circle395" fill="#FFFFFF" stroke="#000000" stroke-miterlimit="10" cx="651.941" cy="307.468" r="5.752"/>
<circle id="circle397" fill="#FFFFFF" stroke="#000000" stroke-miterlimit="10" cx="626.365" cy="307.468" r="5.752"/>
<circle id="circle399" fill="#FFFFFF" stroke="#000000" stroke-miterlimit="10" cx="626.365" cy="287.481" r="5.752"/>
<rect id="rect401" x="590.333" y="277.288" fill="#EEEDF8" stroke="#000000" stroke-miterlimit="10" width="10.2" height="20.278"/>
<rect id="rect403" x="590.333" y="297.567" fill="#EEEDF8" stroke="#000000" stroke-miterlimit="10" width="10.2" height="20.281"/>
<rect id="rect405" x="580.252" y="297.567" fill="#EEEDF8" stroke="#000000" stroke-miterlimit="10" width="10.08" height="20.281"/>
<rect id="rect407" x="580.252" y="277.288" fill="#EEEDF8" stroke="#000000" stroke-miterlimit="10" width="10.08" height="20.278"/>
<circle id="circle409" fill="#FFFFFF" stroke="#000000" stroke-miterlimit="10" cx="602.941" cy="287.481" r="5.752"/>
<circle id="circle411" fill="#FFFFFF" stroke="#000000" stroke-miterlimit="10" cx="602.941" cy="307.468" r="5.752"/>
<circle id="circle413" fill="#FFFFFF" stroke="#000000" stroke-miterlimit="10" cx="577.365" cy="307.468" r="5.752"/>
<circle id="circle415" fill="#FFFFFF" stroke="#000000" stroke-miterlimit="10" cx="577.365" cy="287.481" r="5.752"/>
<rect id="rect417" x="565.333" y="258.923" fill="#FFFFFF" stroke="#000000" stroke-miterlimit="10" width="28.57" height="6.05"/>
<rect id="rect419" x="611.333" y="258.923" fill="#FFFFFF" stroke="#000000" stroke-miterlimit="10" width="28" height="6.05"/>
<rect id="rect421" x="478.253" y="267.388" fill="#EEEDF8" stroke="#000000" stroke-miterlimit="10" width="10.2" height="22.634"/>
<circle id="circle423" fill="#FFFFFF" stroke="#000000" stroke-miterlimit="10" cx="490.862" cy="278.704" r="5.752"/>
<rect id="rect427" x="478.253" y="299.409" fill="#EEEDF8" stroke="#000000" stroke-miterlimit="10" width="10.2" height="22.634"/>
<circle id="circle429" fill="#FFFFFF" stroke="#000000" stroke-miterlimit="10" cx="490.862" cy="310.726" r="5.752"/>
<path id="path433" fill="#FFFFFF" stroke="#000000" stroke-miterlimit="10" d="M546.644,258.923c0,0-2.984,3.558,0.859,6.035
	l-1.859,0.623l14.949-5v-1.658H546.644z"/>
<path id="path435" fill="#FFFFFF" stroke="#000000" stroke-miterlimit="10" d="M449.644,258.923c0,0-2.984,3.558,0.859,6.035
	l-1.859,0.623l14.949-5v-1.658H449.644z"/>
<path id="path437" fill="#FFFFFF" stroke="#000000" stroke-miterlimit="10" d="M441.247,313.89c0,0,3.557,2.985,6.036-0.858
	l0.622,1.858l-5-14.949h-1.658V313.89L441.247,313.89z"/>
<rect id="rect439" x="533.253" y="299.409" fill="#EEEDF8" stroke="#000000" stroke-miterlimit="10" width="10.2" height="22.634"/>
<circle id="circle441" fill="#FFFFFF" stroke="#000000" stroke-miterlimit="10" cx="530.286" cy="310.726" r="5.752"/>
<rect id="rect443" x="533.253" y="276.409" fill="#EEEDF8" stroke="#000000" stroke-miterlimit="10" width="10.2" height="22.634"/>
<circle id="circle445" fill="#FFFFFF" stroke="#000000" stroke-miterlimit="10" cx="545.862" cy="287.726" r="5.752"/>
<circle id="h_circle449" inkscape:label="#circle449" fill="#999999" cx="392.137" cy="283.688" r="5.752">
</circle>
<circle id="h_circle453" inkscape:label="#circle453" fill="#999999" cx="417.713" cy="283.688" r="5.752">
</circle>
<circle id="h_circle455" inkscape:label="#circle455" fill="#999999" cx="392.137" cy="297.688" r="5.752">
</circle>
<circle id="h_circle457" inkscape:label="#circle457" fill="#999999" cx="417.713" cy="297.688" r="5.752">
</circle>
<circle id="h_circle461" inkscape:label="#circle461" fill="#999999" cx="392.137" cy="311.688" r="5.752">
</circle>
<circle id="h_circle465" inkscape:label="#circle465" fill="#999999" cx="417.713" cy="311.688" r="5.752">
</circle>
<circle id="h_circle467" inkscape:label="#circle467" fill="#999999" cx="392.137" cy="325.688" r="5.752">
</circle>
<circle id="h_circle553" inkscape:label="#circle553" fill="#999999" cx="417.713" cy="325.688" r="5.752">
</circle>
<rect id="rect471" x="390.64" y="258.923" fill="#FFFFFF" stroke="#000000" stroke-miterlimit="10" width="28.57" height="6.05"/>
<line id="line473" fill="none" stroke="#000000" stroke-miterlimit="10" x1="367.247" y1="258.923" x2="367.247" y2="336.141"/>
<line id="line475" fill="none" stroke="#000000" stroke-miterlimit="10" x1="367.247" y1="258.923" x2="204.961" y2="258.923"/>
<line id="line477" fill="none" stroke="#000000" stroke-miterlimit="10" x1="205.209" y1="258.923" x2="205.209" y2="324.448"/>
<rect id="rect479" x="256.522" y="283.171" fill="#EEEDF8" stroke="#000000" stroke-miterlimit="10" width="20.28" height="10.199"/>
<circle id="circle481" fill="#FFFFFF" stroke="#000000" stroke-miterlimit="10" cx="266.662" cy="295.778" r="5.752"/>
<rect id="rect483" x="256.522" y="273.03" fill="#EEEDF8" stroke="#000000" stroke-miterlimit="10" width="20.28" height="10.201"/>
<circle id="circle485" fill="#FFFFFF" stroke="#000000" stroke-miterlimit="10" cx="266.662" cy="270.202" r="5.752"/>
<rect id="rect487" x="246.321" y="273.091" fill="#EEEDF8" stroke="#000000" stroke-miterlimit="10" width="10.201" height="20.28"/>
<circle id="circle211" fill="#FFFFFF" stroke="#000000" stroke-miterlimit="10" cx="243.494" cy="283.23" r="5.753"/>
<rect id="rect491" x="226.681" y="301.224" fill="#EEEDF8" stroke="#000000" stroke-miterlimit="10" width="10.2" height="20.278"/>
<circle id="circle209" fill="#FFFFFF" stroke="#000000" stroke-miterlimit="10" cx="239.29" cy="311.363" r="5.753"/>
<rect id="rect495" x="216.541" y="301.224" fill="#EEEDF8" stroke="#000000" stroke-miterlimit="10" width="10.201" height="20.278"/>
<circle id="circle171" fill="#FFFFFF" stroke="#000000" stroke-miterlimit="10" cx="213.713" cy="311.363" r="5.753"/>
<line id="line499" fill="none" stroke="#000000" stroke-miterlimit="10" x1="278.961" y1="258.923" x2="278.961" y2="325.648"/>
<line id="line501" fill="none" stroke="#000000" stroke-miterlimit="10" x1="317.961" y1="258.923" x2="317.961" y2="325.648"/>
<rect id="rect503" x="293.321" y="273.091" fill="#EEEDF8" stroke="#000000" stroke-miterlimit="10" width="10.203" height="20.28"/>
<rect id="rect505" x="293.321" y="293.091" fill="#EEEDF8" stroke="#000000" stroke-miterlimit="10" width="10.203" height="20.28"/>
<path id="path507" fill="#FFFFFF" stroke="#000000" stroke-miterlimit="10" d="M349.644,258.923c0,0-2.984,3.558,0.859,6.035
	l-1.859,0.623l14.949-5v-1.658H349.644z"/>
<path id="path509" fill="#FFFFFF" stroke="#000000" stroke-miterlimit="10" d="M299.644,258.923c0,0-2.984,3.558,0.859,6.035
	l-1.859,0.623l14.949-5v-1.658H299.644z"/>
<path id="path511" fill="#FFFFFF" stroke="#000000" stroke-miterlimit="10" d="M222.488,258.923c0,0,2.986,3.558-0.859,6.035
	l1.859,0.623l-14.949-5v-1.658H222.488z"/>
<line id="line513" fill="none" stroke="#000000" stroke-miterlimit="10" x1="317.961" y1="294.091" x2="367.247" y2="294.091"/>
<rect id="rect515" x="330.253" y="273.091" fill="#EEEDF8" stroke="#000000" stroke-miterlimit="10" width="10.2" height="19.932"/>
<circle id="circle519" fill="#FFFFFF" stroke="#000000" stroke-miterlimit="10" cx="327.286" cy="283.704" r="5.752"/>
<rect id="rect521" x="318.305" y="295.29" fill="#EEEDF8" stroke="#000000" stroke-miterlimit="10" width="22.636" height="10.2"/>
<circle id="circle525" fill="#FFFFFF" stroke="#000000" stroke-miterlimit="10" cx="329.622" cy="308.458" r="5.752"/>
<rect id="rect527" x="103.851" y="286.678" transform="matrix(0.7071 -0.7071 0.7071 0.7071 -172.9314 166.0638)" fill="#EEEDF8" stroke="#000000" stroke-miterlimit="10" width="20.28" height="10.201"/>
<circle id="circle529" fill="#FFFFFF" stroke="#000000" stroke-miterlimit="10" cx="108.678" cy="286.479" r="5.752"/>
<rect id="rect531" x="111.012" y="293.868" transform="matrix(-0.7071 0.7071 -0.7071 -0.7071 418.2219 424.7029)" fill="#EEEDF8" stroke="#000000" stroke-miterlimit="10" width="20.28" height="10.201"/>
<circle id="circle533" fill="#FFFFFF" stroke="#000000" stroke-miterlimit="10" cx="126.763" cy="304.564" r="5.753"/>
<rect id="rect535" x="118.178" y="279.47" transform="matrix(0.7071 0.7071 -0.7071 0.7071 238.8051 -7.3853)" fill="#EEEDF8" stroke="#000000" stroke-miterlimit="10" width="20.28" height="10.201"/>
<circle id="circle537" fill="#FFFFFF" stroke="#000000" stroke-miterlimit="10" cx="133.934" cy="278.969" r="5.752"/>
<rect id="rect539" x="110.106" y="236.878" fill="#EEEDF8" stroke="#000000" stroke-miterlimit="10" width="10.2" height="20.279"/>
<circle id="circle541" fill="#FFFFFF" stroke="#000000" stroke-miterlimit="10" cx="107.698" cy="247.018" r="5.753"/>
<rect id="rect543" x="120.246" y="236.877" fill="#EEEDF8" stroke="#000000" stroke-miterlimit="10" width="10.201" height="20.28"/>
<circle id="circle545" fill="#FFFFFF" stroke="#000000" stroke-miterlimit="10" cx="133.274" cy="247.018" r="5.753"/>
<rect id="rect547" x="61.622" y="244.17" transform="matrix(0.7071 -0.7071 0.7071 0.7071 -155.2397 123.7488)" fill="#EEEDF8" stroke="#000000" stroke-miterlimit="10" width="20.279" height="10.2"/>
<circle id="circle549" fill="#FFFFFF" stroke="#000000" stroke-miterlimit="10" cx="66.443" cy="243.976" r="5.753"/>
<rect id="rect551" x="68.776" y="251.366" transform="matrix(-0.7071 0.7071 -0.7071 -0.7071 316.0648 382.0179)" fill="#EEEDF8" stroke="#000000" stroke-miterlimit="10" width="20.28" height="10.202"/>
<circle id="circle169" fill="#FFFFFF" stroke="#000000" stroke-miterlimit="10" cx="84.528" cy="262.06" r="5.753"/>
<rect id="rect555" x="169.106" y="300.878" fill="#EEEDF8" stroke="#000000" stroke-miterlimit="10" width="10.2" height="20.279"/>
<circle id="circle557" fill="#FFFFFF" stroke="#000000" stroke-miterlimit="10" cx="166.698" cy="311.018" r="5.753"/>
<rect id="rect559" x="179.246" y="300.877" fill="#EEEDF8" stroke="#000000" stroke-miterlimit="10" width="10.201" height="20.28"/>
<circle id="circle561" fill="#FFFFFF" stroke="#000000" stroke-miterlimit="10" cx="192.274" cy="311.018" r="5.753"/>
<rect id="rect563" x="169.106" y="280.878" fill="#EEEDF8" stroke="#000000" stroke-miterlimit="10" width="10.2" height="20.279"/>
<circle id="circle565" fill="#FFFFFF" stroke="#000000" stroke-miterlimit="10" cx="166.698" cy="291.018" r="5.753"/>
<rect id="rect567" x="179.246" y="280.877" fill="#EEEDF8" stroke="#000000" stroke-miterlimit="10" width="10.201" height="20.28"/>
<circle id="circle569" fill="#FFFFFF" stroke="#000000" stroke-miterlimit="10" cx="192.274" cy="291.018" r="5.753"/>
<rect id="rect571" x="176.64" y="258.923" fill="#FFFFFF" stroke="#000000" stroke-miterlimit="10" width="28.57" height="6.05"/>
<polygon id="polygon573" fill="none" stroke="#000000" stroke-miterlimit="10" points="308.173,124.055 278.924,124.055 
	278.923,188.788 230.681,188.788 230.681,124.055 186.083,124.055 186.083,235.157 308.173,235.157 "/>
<rect id="rect575" x="278.923" y="124.055" fill="none" stroke="#000000" stroke-miterlimit="10" width="29.25" height="111.103"/>
<rect id="rect577" x="223.242" y="188.911" fill="none" stroke="#000000" stroke-miterlimit="10" width="84.932" height="46.246"/>
<polygon id="polygon579" fill="none" stroke="#000000" stroke-miterlimit="10" points="278.923,188.911 230.681,188.911 
	230.681,124.055 241.461,124.055 241.461,140.646 268.961,140.646 268.961,124.055 278.923,124.055 "/>
<path id="path581" fill="#FFFFFF" stroke="#000000" stroke-miterlimit="10" d="M268.904,126.664c0,0-3.557-2.986-6.036,0.859
	l-0.622-1.859l5,14.949h1.658V126.664L268.904,126.664z"/>
<path id="path583" fill="#FFFFFF" stroke="#000000" stroke-miterlimit="10" d="M241.79,126.664c0,0,3.557-2.986,6.036,0.859
	l0.622-1.859l-5,14.949h-1.658V126.664L241.79,126.664z"/>
<rect id="rect585" x="281.044" y="126.393" fill="#FFFFFF" stroke="#000000" stroke-miterlimit="10" width="25.021" height="28.134"/>
<rect id="rect587" x="281.044" y="157.393" fill="#FFFFFF" stroke="#000000" stroke-miterlimit="10" width="25.021" height="28.133"/>
<line id="line589" fill="none" stroke="#000000" stroke-miterlimit="10" x1="254.802" y1="140.646" x2="254.802" y2="188.788"/>
<path id="path591" fill="#FFFFFF" stroke="#000000" stroke-miterlimit="10" d="M308.094,217.003c0,0-3.557,2.986-6.036-0.859
	l-0.622,1.859l5-14.948h1.658V217.003L308.094,217.003z"/>
<polygon id="polygon593" fill="none" stroke="#000000" stroke-miterlimit="10" points="450.173,124.055 420.924,124.055 
	420.923,188.788 372.681,188.788 372.681,124.055 342.083,124.055 342.083,235.157 450.173,235.157 "/>
<rect id="rect595" x="420.923" y="124.055" fill="none" stroke="#000000" stroke-miterlimit="10" width="29.25" height="111.103"/>
<rect id="rect597" x="396.654" y="124.394" fill="none" stroke="#000000" stroke-miterlimit="10" width="24.27" height="64.519"/>
<rect id="rect599" x="422.711" y="126.393" fill="#FFFFFF" stroke="#000000" stroke-miterlimit="10" width="25.021" height="32.946"/>
<rect id="rect601" x="422.711" y="163.282" fill="#FFFFFF" stroke="#000000" stroke-miterlimit="10" width="25.021" height="32.944"/>
<polygon id="polygon603" fill="none" stroke="#000000" stroke-miterlimit="10" points="619.173,124.055 589.924,124.055 
	589.923,188.788 541.681,188.788 541.681,124.055 497.083,124.055 497.083,235.157 619.173,235.157 "/>
<rect id="rect605" x="589.923" y="124.055" fill="none" stroke="#000000" stroke-miterlimit="10" width="29.25" height="111.103"/>
<rect id="rect607" x="534.242" y="188.911" fill="none" stroke="#000000" stroke-miterlimit="10" width="84.932" height="46.246"/>
<polygon id="polygon609" fill="none" stroke="#000000" stroke-miterlimit="10" points="589.923,188.911 541.681,188.911 
	541.681,124.055 552.461,124.055 552.461,140.646 579.961,140.646 579.961,124.055 589.923,124.055 "/>
<path id="path611" fill="#FFFFFF" stroke="#000000" stroke-miterlimit="10" d="M579.904,126.664c0,0-3.559-2.986-6.036,0.859
	l-0.622-1.859l5,14.949h1.658V126.664z"/>
<path id="path613" fill="#FFFFFF" stroke="#000000" stroke-miterlimit="10" d="M552.79,126.664c0,0,3.557-2.986,6.036,0.859
	l0.622-1.859l-5,14.949h-1.658V126.664z"/>
<rect id="rect615" x="592.044" y="126.393" fill="#FFFFFF" stroke="#000000" stroke-miterlimit="10" width="25.021" height="28.134"/>
<rect id="rect617" x="592.044" y="157.393" fill="#FFFFFF" stroke="#000000" stroke-miterlimit="10" width="25.021" height="28.133"/>
<line id="line619" fill="none" stroke="#000000" stroke-miterlimit="10" x1="565.802" y1="140.646" x2="565.802" y2="188.788"/>
<path id="path621" fill="#FFFFFF" stroke="#000000" stroke-miterlimit="10" d="M619.094,217.003c0,0-3.557,2.986-6.036-0.859
	l-0.622,1.859l5-14.948h1.658V217.003z"/>
<rect id="rect623" x="422.711" y="200.171" fill="#FFFFFF" stroke="#000000" stroke-miterlimit="10" width="25.021" height="32.945"/>
<path id="path625" fill="#FFFFFF" stroke="#000000" stroke-miterlimit="10" d="M402.342,124.841c0,0-2.984-3.557,0.86-6.034
	l-1.86-0.623l14.949,5v1.657H402.342z"/>
<g id="g627">
</g>
<g id="g629">
</g>
<g id="g631">
</g>
<g id="g633">
</g>
<g id="g635">
</g>
<g id="g637">
</g>
<rect id="rect219" x="495.852" y="43.548" fill="#EEEDF8" stroke="#000000" stroke-miterlimit="10" width="10.201" height="28.311"/>
<rect id="rect223" x="505.993" y="43.548" fill="#EEEDF8" stroke="#000000" stroke-miterlimit="10" width="10.199" height="28.311"/>
<rect id="rect231" x="495.852" y="71.548" fill="#EEEDF8" stroke="#000000" stroke-miterlimit="10" width="10.201" height="28.311"/>
<rect id="rect235" x="505.993" y="71.548" fill="#EEEDF8" stroke="#000000" stroke-miterlimit="10" width="10.199" height="28.311"/>
<rect id="rect323" x="676.693" y="146.156" fill="#EEEDF8" stroke="#000000" stroke-miterlimit="10" width="29.494" height="27.295"/>
<rect id="rect337" x="706.349" y="146.186" fill="#EEEDF8" stroke="#000000" stroke-miterlimit="10" width="29.494" height="27.296"/>
<rect id="rect447" x="394.545" y="276.548" fill="#EEEDF8" stroke="#000000" stroke-miterlimit="10" width="10.202" height="28.312"/>
<rect id="rect451" x="404.686" y="276.548" fill="#EEEDF8" stroke="#000000" stroke-miterlimit="10" width="10.199" height="28.312"/>
<rect id="rect459" x="394.545" y="304.548" fill="#EEEDF8" stroke="#000000" stroke-miterlimit="10" width="10.202" height="28.312"/>
<rect id="rect463" x="404.686" y="304.548" fill="#EEEDF8" stroke="#000000" stroke-miterlimit="10" width="10.199" height="28.312"/>
<rect id="rect123" x="170.882" y="42.089" fill="#EEEDF8" stroke="#000000" stroke-miterlimit="10" width="10.2" height="20.28"/>
<rect id="rect127" x="181.022" y="42.089" fill="#EEEDF8" stroke="#000000" stroke-miterlimit="10" width="10.201" height="20.28"/>
<ellipse id="ellipse131" sodipodi:ry="11.471" sodipodi:rx="17.382999" sodipodi:cy="81.916" sodipodi:cx="153.632" fill="#EEEDF8" stroke="#000000" stroke-miterlimit="10" cx="153.472" cy="81.595" rx="17.383" ry="11.471">
</ellipse>
<rect id="rect165" x="287.084" y="51.132" fill="#EEEDF8" stroke="#000000" stroke-miterlimit="10" width="10.2" height="25.824"/>
<rect id="rect173" x="329.084" y="51.132" fill="#EEEDF8" stroke="#000000" stroke-miterlimit="10" width="10.2" height="25.824"/>
<rect id="rect585_1_" x="345.044" y="126.393" fill="#FFFFFF" stroke="#000000" stroke-miterlimit="10" width="25.021" height="28.134"/>
<rect id="rect587_1_" x="345.044" y="157.393" fill="#FFFFFF" stroke="#000000" stroke-miterlimit="10" width="25.021" height="28.133"/>
<path id="path591_1_" fill="#FFFFFF" stroke="#000000" stroke-miterlimit="10" d="M342.094,217.003c0,0-3.557,2.986-6.036-0.859
	l-0.622,1.859l5-14.948h1.658V217.003L342.094,217.003z"/>
</svg>
